<svg width="512" height="512" viewBox="0 0 512 512" fill="none" xmlns="http://www.w3.org/2000/svg">
<rect width="512" height="512" fill="url(#paint0_linear_126_2)"/>
<rect x="16" y="16" width="480" height="480" rx="6" fill="#0F1111"/>
<path d="M65 395V117H121.549V231.289H170.558V117H227.107V395H170.558V271.788H121.549V395H65Z" fill="url(#paint1_linear_126_2)"/>
<path d="M286.949 395V117H375.029C391.708 117 405.302 120.203 415.812 126.61C426.323 132.788 434.091 141.826 439.117 153.723C444.372 165.621 447 180.036 447 196.968C447 216.874 443.573 232.433 436.718 243.644C430.092 254.856 420.953 262.864 409.301 267.669C397.648 272.245 384.282 274.533 369.202 274.533H343.498V395H286.949ZM343.498 234.721H363.376C371.601 234.721 377.885 233.463 382.226 230.946C386.795 228.2 389.88 223.967 391.479 218.247C393.079 212.527 393.878 205.205 393.878 196.281C393.878 187.816 393.193 180.723 391.822 175.002C390.68 169.282 387.938 164.821 383.597 161.617C379.256 158.414 372.401 156.812 363.033 156.812H343.498V234.721Z" fill="url(#paint2_linear_126_2)"/>
<defs>
<linearGradient id="paint0_linear_126_2" x1="0" y1="0" x2="608.58" y2="173.784" gradientUnits="userSpaceOnUse">
<stop stop-color="#FEAE28"/>
<stop offset="1" stop-color="#7D31E0"/>
</linearGradient>
<linearGradient id="paint1_linear_126_2" x1="43.4086" y1="-14.4003" x2="538.667" y2="85.9998" gradientUnits="userSpaceOnUse">
<stop stop-color="#FEAE28"/>
<stop offset="1" stop-color="#9747FF"/>
<stop offset="1" stop-color="#9747FF"/>
</linearGradient>
<linearGradient id="paint2_linear_126_2" x1="43.4086" y1="-14.4003" x2="538.667" y2="85.9998" gradientUnits="userSpaceOnUse">
<stop stop-color="#FEAE28"/>
<stop offset="1" stop-color="#9747FF"/>
<stop offset="1" stop-color="#9747FF"/>
</linearGradient>
</defs>
</svg>
